<svg width="173" height="63" viewBox="0 0 173 63" fill="none" xmlns="http://www.w3.org/2000/svg">
<rect width="173" height="63" rx="5" fill="white"/>
<path d="M23.52 29H21.552V17.8H23.536L27.36 23.032L31.008 17.8H32.864V29H30.912V20.904L27.376 25.88H27.088L23.52 20.952V29ZM40.6459 24.44L37.2859 29H35.4459V21.8H37.2859V26.36L40.6459 21.8H42.4859V29H40.6459V24.44ZM49.2916 21.8H51.4196L49.0196 25.24L51.5796 29H49.3396L47.6596 26.408L45.9156 29H43.7876L46.3476 25.336L43.9476 21.8H46.2036L47.7236 24.184L49.2916 21.8ZM53.459 23.656L52.995 22.312C53.7737 21.8533 54.6217 21.624 55.539 21.624C56.5417 21.624 57.2723 21.8693 57.731 22.36C58.1897 22.8507 58.419 23.6027 58.419 24.616V29H56.819V28.168C56.3923 28.7867 55.683 29.096 54.691 29.096C54.0083 29.096 53.459 28.8987 53.043 28.504C52.6377 28.0987 52.435 27.56 52.435 26.888C52.435 26.1413 52.675 25.5653 53.155 25.16C53.635 24.7547 54.2697 24.552 55.059 24.552C55.7097 24.552 56.2537 24.7067 56.691 25.016C56.7123 24.376 56.6163 23.9067 56.403 23.608C56.2003 23.3093 55.8483 23.16 55.347 23.16C54.7923 23.16 54.163 23.3253 53.459 23.656ZM55.299 27.544C55.9177 27.544 56.3817 27.3253 56.691 26.888V26.152C56.3923 25.9173 55.971 25.8 55.427 25.8C55.0857 25.8 54.8083 25.88 54.595 26.04C54.3817 26.2 54.275 26.4187 54.275 26.696C54.275 26.952 54.371 27.16 54.563 27.32C54.755 27.4693 55.0003 27.544 55.299 27.544ZM65.5053 24.44L62.1453 29H60.3053V21.8H62.1453V26.36L65.5053 21.8H67.3453V29H65.5053V24.44ZM75.975 29H74.135V23.64H72.231L72.183 24.408C72.0443 25.7093 71.8417 26.7013 71.575 27.384C71.319 28.0667 70.9883 28.5307 70.583 28.776C70.1883 29.0107 69.639 29.1333 68.935 29.144L68.775 27.352C69.0097 27.3627 69.2283 27.2987 69.431 27.16C69.6657 26.9893 69.8737 26.632 70.055 26.088C70.2363 25.544 70.3537 24.8613 70.407 24.04L70.519 21.8H75.975V29ZM84.1826 19.64H80.5506V17.8H89.7826V19.64H86.1506V29H84.1826V19.64ZM90.864 32.2H89.024V21.8H90.864V22.488C91.0987 22.232 91.4187 22.024 91.824 21.864C92.2293 21.704 92.6507 21.624 93.088 21.624C94.08 21.624 94.8693 21.9653 95.456 22.648C96.0533 23.3413 96.352 24.2213 96.352 25.288C96.352 26.408 96 27.336 95.296 28.072C94.592 28.808 93.6747 29.176 92.544 29.176C91.8187 29.176 91.2587 29.0587 90.864 28.824V32.2ZM92.512 23.352C91.872 23.352 91.3227 23.6133 90.864 24.136V27.048C91.3013 27.3253 91.808 27.464 92.384 27.464C92.992 27.464 93.4773 27.2667 93.84 26.872C94.2133 26.4773 94.4 25.9653 94.4 25.336C94.4 24.7387 94.2293 24.2587 93.888 23.896C93.5573 23.5333 93.0987 23.352 92.512 23.352ZM103.594 26.984L104.122 28.28C103.407 28.8773 102.49 29.176 101.37 29.176C100.218 29.176 99.2792 28.8293 98.5539 28.136C97.8499 27.4533 97.4979 26.5413 97.4979 25.4C97.4979 24.3333 97.8445 23.4373 98.5379 22.712C99.2312 21.9867 100.154 21.624 101.306 21.624C102.255 21.624 103.061 21.9387 103.722 22.568C104.383 23.1973 104.714 23.9973 104.714 24.968C104.714 25.3947 104.677 25.7253 104.602 25.96H99.4019C99.4765 26.4827 99.7059 26.8933 100.09 27.192C100.485 27.4907 100.975 27.64 101.562 27.64C102.362 27.64 103.039 27.4213 103.594 26.984ZM101.226 23.16C100.181 23.16 99.5512 23.6827 99.3379 24.728H102.874C102.885 24.2693 102.735 23.896 102.426 23.608C102.127 23.3093 101.727 23.16 101.226 23.16ZM107.734 23.64H105.366V21.8H111.926V23.64H109.574V29H107.734V23.64ZM115.931 29H113.243V21.8H115.083V23.768H116.075C117.152 23.768 117.947 23.992 118.459 24.44C118.981 24.888 119.243 25.496 119.243 26.264C119.243 27.0853 118.965 27.7467 118.411 28.248C117.856 28.7493 117.029 29 115.931 29ZM115.915 25.24H115.083V27.4H115.899C116.827 27.4 117.291 27.0427 117.291 26.328C117.291 25.6027 116.832 25.24 115.915 25.24ZM123.966 21.8H126.318V29H124.478V26.84H123.454L121.966 29H119.854L121.774 26.44C121.379 26.3013 121.049 26.0507 120.782 25.688C120.515 25.3147 120.382 24.872 120.382 24.36C120.382 23.5707 120.681 22.9467 121.278 22.488C121.886 22.0293 122.782 21.8 123.966 21.8ZM122.35 24.488C122.35 24.7653 122.467 25 122.702 25.192C122.937 25.384 123.209 25.48 123.518 25.48H124.478V23.4H123.662C123.257 23.4 122.937 23.5067 122.702 23.72C122.467 23.9227 122.35 24.1787 122.35 24.488ZM132.864 21.8H135.184L132.416 25.224L135.52 29H133.12L130.272 25.368L132.864 21.8ZM130.208 29H128.368V21.8H130.208V29ZM136.789 28.12C136.074 27.4053 135.717 26.4987 135.717 25.4C135.717 24.3013 136.074 23.4 136.789 22.696C137.503 21.9813 138.453 21.624 139.637 21.624C140.81 21.624 141.754 21.9813 142.469 22.696C143.194 23.4 143.557 24.3013 143.557 25.4C143.557 26.488 143.194 27.3947 142.469 28.12C141.743 28.824 140.799 29.176 139.637 29.176C138.453 29.176 137.503 28.824 136.789 28.12ZM138.245 23.928C137.871 24.312 137.685 24.8027 137.685 25.4C137.685 25.9973 137.866 26.4933 138.229 26.888C138.602 27.272 139.071 27.464 139.637 27.464C140.213 27.464 140.682 27.272 141.045 26.888C141.418 26.504 141.605 26.008 141.605 25.4C141.605 24.8027 141.418 24.312 141.045 23.928C140.671 23.544 140.202 23.352 139.637 23.352C139.082 23.352 138.618 23.544 138.245 23.928ZM145.149 29V21.8C145.245 21.8 145.65 21.7893 146.365 21.768C147.09 21.736 147.629 21.72 147.981 21.72C150.157 21.72 151.245 22.3493 151.245 23.608C151.245 24.0133 151.117 24.3707 150.861 24.68C150.605 24.9787 150.285 25.1547 149.901 25.208V25.24C150.925 25.4853 151.437 26.04 151.437 26.904C151.437 28.3547 150.296 29.08 148.013 29.08C147.682 29.08 147.176 29.064 146.493 29.032C146.322 29.032 146.125 29.0267 145.901 29.016C145.688 29.016 145.522 29.0107 145.405 29C145.298 29 145.213 29 145.149 29ZM148.141 25.944H146.989V27.544C147.629 27.5867 148.034 27.608 148.205 27.608C148.61 27.608 148.925 27.5333 149.149 27.384C149.384 27.2347 149.501 27.032 149.501 26.776C149.501 26.2213 149.048 25.944 148.141 25.944ZM148.141 23.208C147.714 23.208 147.33 23.2187 146.989 23.24V24.824H148.189C148.52 24.824 148.786 24.7493 148.989 24.6C149.192 24.4507 149.293 24.248 149.293 23.992C149.293 23.4693 148.909 23.208 148.141 23.208Z" fill="#35465E"/>
<path d="M21.11 45.99V39.01C22.0367 38.9833 22.65 38.97 22.95 38.97C24.4233 38.97 25.16 39.5467 25.16 40.7C25.16 41.1267 25.0367 41.4833 24.79 41.77C24.5433 42.05 24.2133 42.24 23.8 42.34V42.36C24.32 42.42 24.72 42.5967 25 42.89C25.2867 43.1767 25.43 43.56 25.43 44.04C25.43 44.6933 25.2067 45.19 24.76 45.53C24.32 45.8633 23.7133 46.03 22.94 46.03C22.2067 46.03 21.5967 46.0167 21.11 45.99ZM22.99 42.67H21.66V45.47C22.3267 45.4967 22.76 45.51 22.96 45.51C23.58 45.51 24.0533 45.3833 24.38 45.13C24.7133 44.8767 24.88 44.5033 24.88 44.01C24.88 43.5833 24.7167 43.2533 24.39 43.02C24.0633 42.7867 23.5967 42.67 22.99 42.67ZM22.93 39.49C22.6433 39.49 22.22 39.5 21.66 39.52V42.18H23.02C23.48 42.18 23.8567 42.0567 24.15 41.81C24.4567 41.5633 24.61 41.23 24.61 40.81C24.61 39.93 24.05 39.49 22.93 39.49ZM27.1019 42.25L26.9619 41.82C27.4085 41.5467 27.8852 41.41 28.3919 41.41C28.9785 41.41 29.4019 41.5567 29.6619 41.85C29.9285 42.1433 30.0619 42.5967 30.0619 43.21V46H29.5419V45.31C29.1752 45.81 28.6619 46.06 28.0019 46.06C27.5819 46.06 27.2452 45.94 26.9919 45.7C26.7385 45.4533 26.6119 45.1267 26.6119 44.72C26.6119 44.28 26.7719 43.9367 27.0919 43.69C27.4052 43.4433 27.8152 43.32 28.3219 43.32C28.8285 43.32 29.2352 43.4333 29.5419 43.66C29.5419 43.1933 29.5085 42.8367 29.4419 42.59C29.3885 42.35 29.2785 42.18 29.1119 42.08C28.9519 41.98 28.7019 41.92 28.3619 41.9C27.9552 41.9 27.5352 42.0167 27.1019 42.25ZM28.1619 45.57C28.7219 45.57 29.1819 45.3333 29.5419 44.86V44.11C29.2152 43.87 28.8252 43.75 28.3719 43.75C28.0319 43.75 27.7452 43.8333 27.5119 44C27.2785 44.1667 27.1619 44.3967 27.1619 44.69C27.1619 44.9567 27.2552 45.17 27.4419 45.33C27.6285 45.49 27.8685 45.57 28.1619 45.57ZM37.0117 46H31.5517V41.5H32.0717V45.51H34.0217V41.5H34.5417V45.51H36.4917V41.5H37.0117V46ZM41.096 42.25L40.956 41.82C41.4027 41.5467 41.8793 41.41 42.386 41.41C42.9727 41.41 43.396 41.5567 43.656 41.85C43.9227 42.1433 44.056 42.5967 44.056 43.21V46H43.536V45.31C43.1693 45.81 42.656 46.06 41.996 46.06C41.576 46.06 41.2393 45.94 40.986 45.7C40.7327 45.4533 40.606 45.1267 40.606 44.72C40.606 44.28 40.766 43.9367 41.086 43.69C41.3993 43.4433 41.8093 43.32 42.316 43.32C42.8227 43.32 43.2293 43.4333 43.536 43.66C43.536 43.1933 43.5027 42.8367 43.436 42.59C43.3827 42.35 43.2727 42.18 43.106 42.08C42.946 41.98 42.696 41.92 42.356 41.9C41.9493 41.9 41.5293 42.0167 41.096 42.25ZM42.156 45.57C42.716 45.57 43.176 45.3333 43.536 44.86V44.11C43.2093 43.87 42.8193 43.75 42.366 43.75C42.026 43.75 41.7393 43.8333 41.506 44C41.2727 44.1667 41.156 44.3967 41.156 44.69C41.156 44.9567 41.2493 45.17 41.436 45.33C41.6227 45.49 41.8627 45.57 42.156 45.57ZM46.0659 46H45.5459V41.5H48.2559V41.99H46.0659V46ZM52.475 45.05L52.645 45.45C52.2383 45.8767 51.685 46.09 50.985 46.09C50.265 46.09 49.6883 45.8767 49.255 45.45C48.815 45.0233 48.595 44.4567 48.595 43.75C48.595 43.07 48.795 42.51 49.195 42.07C49.6017 41.63 50.1617 41.41 50.875 41.41C51.455 41.41 51.9417 41.5967 52.335 41.97C52.7217 42.3367 52.915 42.8267 52.915 43.44C52.915 43.6 52.905 43.74 52.885 43.86H49.175C49.195 44.4 49.3717 44.8267 49.705 45.14C50.0383 45.4467 50.475 45.6 51.015 45.6C51.6417 45.6 52.1283 45.4167 52.475 45.05ZM50.825 41.9C50.345 41.9 49.955 42.04 49.655 42.32C49.3617 42.6 49.1917 42.97 49.145 43.43H52.385C52.3783 42.9567 52.235 42.5833 51.955 42.31C51.675 42.0367 51.2983 41.9 50.825 41.9ZM58.1191 46H57.5991V43.96H54.6791V46H54.1591V41.5H54.6791V43.47H57.5991V41.5H58.1191V46ZM60.8263 42.02H59.0363V41.5H63.1363V42.02H61.3463V46H60.8263V42.02ZM70.3652 46H69.8452V43.96H66.9252V46H66.4052V41.5H66.9252V43.47H69.8452V41.5H70.3652V46ZM72.0823 42.25L71.9423 41.82C72.389 41.5467 72.8657 41.41 73.3723 41.41C73.959 41.41 74.3823 41.5567 74.6423 41.85C74.909 42.1433 75.0423 42.5967 75.0423 43.21V46H74.5223V45.31C74.1557 45.81 73.6423 46.06 72.9823 46.06C72.5623 46.06 72.2257 45.94 71.9723 45.7C71.719 45.4533 71.5923 45.1267 71.5923 44.72C71.5923 44.28 71.7523 43.9367 72.0723 43.69C72.3857 43.4433 72.7957 43.32 73.3023 43.32C73.809 43.32 74.2157 43.4333 74.5223 43.66C74.5223 43.1933 74.489 42.8367 74.4223 42.59C74.369 42.35 74.259 42.18 74.0923 42.08C73.9323 41.98 73.6823 41.92 73.3423 41.9C72.9357 41.9 72.5157 42.0167 72.0823 42.25ZM73.1423 45.57C73.7023 45.57 74.1623 45.3333 74.5223 44.86V44.11C74.1957 43.87 73.8057 43.75 73.3523 43.75C73.0123 43.75 72.7257 43.8333 72.4923 44C72.259 44.1667 72.1423 44.3967 72.1423 44.69C72.1423 44.9567 72.2357 45.17 72.4223 45.33C72.609 45.49 72.849 45.57 73.1423 45.57ZM81.9957 43.92H79.6157V43.49H81.9857C81.939 42.99 81.749 42.6 81.4157 42.32C81.089 42.04 80.669 41.9 80.1557 41.9C79.5557 41.9 79.069 42.0867 78.6957 42.46L78.4657 42.07C78.659 41.87 78.909 41.71 79.2157 41.59C79.5224 41.47 79.8324 41.41 80.1457 41.41C80.8524 41.41 81.4224 41.6233 81.8557 42.05C82.3024 42.4767 82.5257 43.0433 82.5257 43.75C82.5257 44.4167 82.3124 44.9733 81.8857 45.42C81.459 45.8667 80.9257 46.09 80.2857 46.09C79.4924 46.09 78.9024 45.9067 78.5157 45.54L78.7657 45.15C79.1057 45.45 79.599 45.6 80.2457 45.6C80.7324 45.6 81.1357 45.4467 81.4557 45.14C81.7824 44.8333 81.9624 44.4267 81.9957 43.92ZM84.752 42.02H82.962V41.5H87.062V42.02H85.272V46H84.752V42.02ZM89.8613 46.09C89.1679 46.09 88.6013 45.87 88.1613 45.43C87.7213 44.99 87.5013 44.43 87.5013 43.75C87.5013 43.07 87.7213 42.51 88.1613 42.07C88.6013 41.63 89.1679 41.41 89.8613 41.41C90.5546 41.41 91.1213 41.63 91.5613 42.07C92.0013 42.51 92.2213 43.07 92.2213 43.75C92.2213 44.43 92.0013 44.99 91.5613 45.43C91.1213 45.87 90.5546 46.09 89.8613 46.09ZM89.8613 45.6C90.4013 45.6 90.8346 45.43 91.1613 45.09C91.5013 44.7433 91.6713 44.2967 91.6713 43.75C91.6713 43.21 91.5013 42.7667 91.1613 42.42C90.8213 42.0733 90.3879 41.9 89.8613 41.9C89.3413 41.9 88.9079 42.0733 88.5613 42.42C88.2213 42.7667 88.0513 43.21 88.0513 43.75C88.0513 44.29 88.2213 44.7333 88.5613 45.08C88.9013 45.4267 89.3346 45.6 89.8613 45.6ZM94.0151 46H93.4951V41.5H93.9851L95.8551 44.01L97.6551 41.5H98.1251V46H97.6051V42.29L95.8551 44.72H95.8251L94.0151 42.29V46ZM104.109 46.09C103.416 46.09 102.849 45.87 102.409 45.43C101.969 44.99 101.749 44.43 101.749 43.75C101.749 43.07 101.969 42.51 102.409 42.07C102.849 41.63 103.416 41.41 104.109 41.41C104.803 41.41 105.369 41.63 105.809 42.07C106.249 42.51 106.469 43.07 106.469 43.75C106.469 44.43 106.249 44.99 105.809 45.43C105.369 45.87 104.803 46.09 104.109 46.09ZM104.109 45.6C104.649 45.6 105.083 45.43 105.409 45.09C105.749 44.7433 105.919 44.2967 105.919 43.75C105.919 43.21 105.749 42.7667 105.409 42.42C105.069 42.0733 104.636 41.9 104.109 41.9C103.589 41.9 103.156 42.0733 102.809 42.42C102.469 42.7667 102.299 43.21 102.299 43.75C102.299 44.29 102.469 44.7333 102.809 45.08C103.149 45.4267 103.583 45.6 104.109 45.6ZM111.303 38.9L111.593 39.29C111.44 39.51 111.253 39.66 111.033 39.74C110.76 39.82 110.47 39.8833 110.163 39.93C109.816 39.9767 109.503 40.0633 109.223 40.19C108.456 40.5167 108.026 41.37 107.933 42.75H107.953C108.106 42.3833 108.363 42.09 108.723 41.87C109.083 41.6433 109.473 41.53 109.893 41.53C110.546 41.53 111.066 41.7367 111.453 42.15C111.84 42.5567 112.033 43.1033 112.033 43.79C112.033 44.4233 111.816 44.9667 111.383 45.42C110.956 45.8667 110.413 46.09 109.753 46.09C109.046 46.09 108.476 45.8433 108.043 45.35C107.623 44.8567 107.413 44.18 107.413 43.32C107.413 41.3467 107.963 40.1367 109.063 39.69C109.343 39.5767 109.653 39.4933 109.993 39.44C110.393 39.3733 110.68 39.31 110.853 39.25C111.026 39.1833 111.176 39.0667 111.303 38.9ZM107.963 43.41C107.963 44.0833 108.126 44.6167 108.453 45.01C108.78 45.4033 109.206 45.6 109.733 45.6C110.24 45.6 110.656 45.4267 110.983 45.08C111.316 44.7267 111.483 44.3033 111.483 43.81C111.483 43.27 111.33 42.8367 111.023 42.51C110.716 42.1833 110.3 42.02 109.773 42.02C109.3 42.02 108.896 42.16 108.563 42.44C108.243 42.72 108.043 43.0433 107.963 43.41ZM113.744 41.99H112.354V41.5H114.264V43.01H115.134C116.321 43.01 116.914 43.5033 116.914 44.49C116.914 44.9567 116.761 45.3267 116.454 45.6C116.154 45.8667 115.691 46 115.064 46H113.744V41.99ZM115.044 43.5H114.264V45.51H115.034C115.501 45.51 115.838 45.4267 116.044 45.26C116.258 45.0933 116.364 44.84 116.364 44.5C116.364 43.8333 115.924 43.5 115.044 43.5ZM121.596 45.05L121.766 45.45C121.359 45.8767 120.806 46.09 120.106 46.09C119.386 46.09 118.809 45.8767 118.376 45.45C117.936 45.0233 117.716 44.4567 117.716 43.75C117.716 43.07 117.916 42.51 118.316 42.07C118.723 41.63 119.283 41.41 119.996 41.41C120.576 41.41 121.063 41.5967 121.456 41.97C121.843 42.3367 122.036 42.8267 122.036 43.44C122.036 43.6 122.026 43.74 122.006 43.86H118.296C118.316 44.4 118.493 44.8267 118.826 45.14C119.159 45.4467 119.596 45.6 120.136 45.6C120.763 45.6 121.249 45.4167 121.596 45.05ZM119.946 41.9C119.466 41.9 119.076 42.04 118.776 42.32C118.483 42.6 118.313 42.97 118.266 43.43H121.506C121.499 42.9567 121.356 42.5833 121.076 42.31C120.796 42.0367 120.419 41.9 119.946 41.9ZM126.28 41.5H126.95L124.73 43.65L127.13 46H126.43L124.1 43.68L126.28 41.5ZM123.8 46H123.28V41.5H123.8V46ZM129.254 42.02H127.464V41.5H131.564V42.02H129.774V46H129.254V42.02ZM135.883 45.05L136.053 45.45C135.647 45.8767 135.093 46.09 134.393 46.09C133.673 46.09 133.097 45.8767 132.663 45.45C132.223 45.0233 132.003 44.4567 132.003 43.75C132.003 43.07 132.203 42.51 132.603 42.07C133.01 41.63 133.57 41.41 134.283 41.41C134.863 41.41 135.35 41.5967 135.743 41.97C136.13 42.3367 136.323 42.8267 136.323 43.44C136.323 43.6 136.313 43.74 136.293 43.86H132.583C132.603 44.4 132.78 44.8267 133.113 45.14C133.447 45.4467 133.883 45.6 134.423 45.6C135.05 45.6 135.537 45.4167 135.883 45.05ZM134.233 41.9C133.753 41.9 133.363 42.04 133.063 42.32C132.77 42.6 132.6 42.97 132.553 43.43H135.793C135.787 42.9567 135.643 42.5833 135.363 42.31C135.083 42.0367 134.707 41.9 134.233 41.9Z" fill="#35465E"/>
</svg>
