<svg width="326" height="35" viewBox="0 0 326 35" fill="none" xmlns="http://www.w3.org/2000/svg">
<path d="M245.796 17.6421C246.447 12.1629 245.483 8.70384 243.745 7.13929L243.746 7.13838C240.94 4.46655 231.466 4.07109 228.109 7.25838C226.602 8.81748 226.071 11.1057 226.013 13.9384C225.955 16.772 225.886 22.0802 230.832 23.5203H230.837L230.832 25.7194C230.832 25.7194 230.798 26.6103 231.367 26.7894C232.018 27.0003 232.313 26.5866 234.337 24.1684C237.723 24.4621 240.323 23.7893 240.618 23.6912C241.302 23.4621 245.17 22.9503 245.796 17.6421ZM234.671 22.6212C234.671 22.6212 232.528 25.293 231.862 25.9866C231.644 26.2121 231.405 26.1912 231.408 25.7439C231.408 25.4503 231.425 22.093 231.425 22.093C227.231 20.8912 227.478 16.3711 227.524 14.0066C227.569 11.6411 228.002 9.70384 229.278 8.39929C232.223 5.63837 240.529 6.25565 242.646 8.24475C245.233 10.5384 244.312 17.0184 244.318 17.2393C243.786 21.6702 240.651 21.9512 240.075 22.143C239.828 22.2248 237.542 22.813 234.671 22.6212Z" fill="white"/>
<path d="M235.857 8.91846C235.507 8.91846 235.507 9.46391 235.857 9.46846C238.572 9.48937 240.808 11.3821 240.833 14.8539C240.833 15.2203 241.369 15.2158 241.365 14.8494H241.364C241.335 11.1085 238.893 8.93937 235.857 8.91846Z" fill="white"/>
<path d="M239.428 14.2782C239.42 14.64 239.956 14.6573 239.96 14.2909C240.005 12.2282 238.733 10.5291 236.343 10.35C235.993 10.3245 235.957 10.8745 236.306 10.9C238.378 11.0573 239.47 12.4718 239.428 14.2782Z" fill="white"/>
<path d="M238.856 16.6246C238.407 16.3646 237.949 16.5264 237.76 16.7819L237.365 17.2937C237.164 17.5537 236.788 17.5192 236.788 17.5192C234.048 16.7946 233.316 13.9273 233.316 13.9273C233.316 13.9273 233.282 13.5391 233.533 13.331L234.028 12.9219C234.275 12.7255 234.431 12.2528 234.179 11.7882C233.507 10.5728 233.055 10.1537 232.825 9.83186C232.583 9.52913 232.219 9.46095 231.841 9.66549H231.833C231.047 10.1255 230.186 10.9864 230.461 11.8728C230.931 12.8073 231.795 15.7864 234.548 18.0373C235.841 19.1019 237.888 20.1928 238.758 20.4446L238.766 20.4574C239.622 20.7428 240.455 19.8483 240.899 19.0383V19.0319C241.097 18.6401 241.031 18.2692 240.743 18.0264C240.232 17.5283 239.461 16.9783 238.856 16.6246Z" fill="white"/>
<path d="M236.717 12.3792C237.591 12.4301 238.015 12.8865 238.06 13.8237C238.077 14.1901 238.608 14.1647 238.592 13.7983C238.534 12.5747 237.896 11.8928 236.747 11.8292C236.397 11.8083 236.364 12.3583 236.717 12.3792Z" fill="white"/>
<path d="M280.589 16.9233L280.582 16.9858C278.749 16.0725 278.557 15.9508 278.321 16.3058C278.157 16.5516 277.678 17.1091 277.534 17.2741C277.388 17.4366 277.243 17.4491 276.996 17.3366C276.746 17.2116 275.943 16.9491 274.993 16.0991C274.253 15.4366 273.757 14.6241 273.61 14.3741C273.366 13.9525 273.877 13.8925 274.342 13.0125C274.425 12.8375 274.382 12.7 274.321 12.5758C274.258 12.4508 273.761 11.2258 273.552 10.7375C273.352 10.2508 273.147 10.3125 272.992 10.3125C272.512 10.2708 272.162 10.2775 271.852 10.5991C270.507 12.0775 270.847 13.6025 271.997 15.2241C274.259 18.1841 275.464 18.7291 277.667 19.4858C278.262 19.675 278.805 19.6483 279.234 19.5866C279.712 19.5108 280.707 18.9858 280.914 18.3983C281.127 17.8108 281.127 17.3233 281.064 17.2108C281.003 17.0983 280.839 17.0358 280.589 16.9233Z" fill="white"/>
<path d="M283.1 7.87452C276.693 1.68036 266.088 6.17286 266.084 14.9112C266.084 16.6579 266.542 18.3612 267.413 19.8653L266 25.0003L271.279 23.6237C277.867 27.182 285.997 22.457 286 14.9162C286 12.2695 284.967 9.77869 283.087 7.90702L283.1 7.87452ZM284.335 14.8887C284.33 21.2495 277.347 25.222 271.825 21.9753L271.525 21.797L268.4 22.6095L269.237 19.572L269.038 19.2595C265.602 13.7887 269.55 6.63869 276.06 6.63869C278.272 6.63869 280.347 7.50119 281.911 9.06369C283.473 10.6129 284.335 12.6887 284.335 14.8887Z" fill="white"/>
<path d="M325.691 5.46326C325.447 5.16449 325.081 5 324.661 5C324.432 5 324.19 5.04807 323.942 5.14313L307.012 11.6057C306.114 11.9485 305.993 12.463 306 12.7392C306.008 13.0154 306.158 13.5223 307.075 13.8139C307.08 13.8156 307.086 13.8173 307.091 13.8188L310.603 14.8237L312.502 20.2543C312.761 20.9947 313.342 21.4546 314.019 21.4546C314.446 21.4546 314.865 21.2757 315.233 20.9376L317.405 18.9376L320.555 21.4744C320.556 21.4747 320.556 21.4749 320.556 21.4752L320.586 21.4993C320.589 21.5014 320.592 21.5037 320.595 21.5058C320.945 21.7774 321.327 21.9209 321.701 21.921H321.701C322.43 21.921 323.011 21.381 323.18 20.5455L325.954 6.8486C326.066 6.29882 325.972 5.80688 325.691 5.46326ZM311.777 14.6328L318.552 11.1717L314.334 15.6543C314.265 15.7277 314.216 15.8175 314.192 15.9153L313.378 19.2103L311.777 14.6328ZM314.439 20.0755C314.411 20.1013 314.383 20.1243 314.354 20.1455L315.109 17.0889L316.482 18.1944L314.439 20.0755ZM324.806 6.6159L322.032 20.3129C322.005 20.444 321.92 20.749 321.701 20.749C321.592 20.749 321.456 20.6899 321.317 20.5827L317.747 17.7082C317.746 17.7078 317.746 17.7073 317.745 17.707L315.621 15.9965L321.722 9.51414C321.917 9.30663 321.935 8.98879 321.764 8.76082C321.592 8.53286 321.282 8.46114 321.028 8.59084L310.995 13.7169L307.435 12.6985L324.36 6.23794C324.502 6.18332 324.602 6.17187 324.661 6.17187C324.697 6.17187 324.76 6.17614 324.784 6.20529C324.815 6.24328 324.855 6.37283 324.806 6.6159Z" fill="white"/>
<path d="M6.46772 15.912H1.71572V14.808H6.46772V10.032H7.64372V14.808H12.4197V15.912H7.64372V20.736H6.46772V15.912ZM23.1205 8.448H14.9605V7.2H24.6565V7.968L18.2725 24H16.8805L23.1205 8.448ZM37.8076 28.248L36.9916 28.944C33.7596 26.16 32.1436 22.712 32.1436 18.6C32.1436 14.632 33.7676 11.184 37.0156 8.256L37.8076 8.952C36.2716 10.376 35.1516 11.872 34.4476 13.44C33.7436 15.008 33.3916 16.728 33.3916 18.6C33.3916 20.424 33.7676 22.176 34.5196 23.856C35.2716 25.52 36.3676 26.984 37.8076 28.248ZM49.6724 13.224C49.6724 16.28 48.9044 18.792 47.3684 20.76C45.8324 22.728 43.8644 23.88 41.4644 24.216L41.0084 23.232C43.0244 22.88 44.6804 21.968 45.9764 20.496C47.2564 19.04 48.0084 17.152 48.2324 14.832C47.8964 15.616 47.3524 16.24 46.6004 16.704C45.8484 17.168 44.9684 17.4 43.9604 17.4C42.5044 17.4 41.3044 16.904 40.3604 15.912C39.4324 14.936 38.9684 13.72 38.9684 12.264C38.9684 10.76 39.4964 9.504 40.5524 8.496C41.6084 7.488 42.8084 6.984 44.1524 6.984C45.9604 6.984 47.3284 7.568 48.2564 8.736C49.2004 9.92 49.6724 11.416 49.6724 13.224ZM48.3524 13.224C48.3524 11.848 48.0004 10.672 47.2964 9.696C46.6084 8.72 45.5764 8.232 44.2004 8.232C43.1604 8.232 42.2484 8.624 41.4644 9.408C40.6804 10.176 40.2884 11.096 40.2884 12.168C40.2884 13.288 40.6404 14.248 41.3444 15.048C42.0324 15.832 43.0084 16.224 44.2724 16.224C45.3764 16.224 46.2724 15.928 46.9604 15.336C47.6644 14.744 48.1284 14.04 48.3524 13.224ZM59.9408 8.448H51.7808V7.2H61.4768V7.968L55.0928 24H53.7008L59.9408 8.448ZM69.0755 14.736H69.8195C70.6035 14.736 71.3235 14.424 71.9795 13.8C72.6195 13.16 72.9395 12.392 72.9395 11.496C72.9395 10.52 72.5875 9.728 71.8835 9.12C71.1955 8.528 70.3715 8.232 69.4115 8.232C68.4355 8.232 67.6195 8.528 66.9635 9.12C66.2915 9.728 65.9555 10.52 65.9555 11.496C65.9555 12.392 66.2755 13.16 66.9155 13.8C67.5555 14.424 68.2755 14.736 69.0755 14.736ZM69.7955 15.984H69.1715C68.1155 15.984 67.2195 16.32 66.4835 16.992C65.7475 17.632 65.3795 18.448 65.3795 19.44C65.3795 20.464 65.7715 21.312 66.5555 21.984C67.3555 22.64 68.3155 22.968 69.4355 22.968C70.6195 22.968 71.5875 22.648 72.3395 22.008C73.1235 21.368 73.5155 20.512 73.5155 19.44C73.5155 18.4 73.1635 17.568 72.4595 16.944C71.7555 16.304 70.8675 15.984 69.7955 15.984ZM64.0595 19.656C64.0595 18.632 64.3715 17.728 64.9955 16.944C65.6195 16.16 66.4435 15.648 67.4675 15.408V15.336C66.6835 15.096 66.0115 14.6 65.4515 13.848C64.9075 13.096 64.6355 12.264 64.6355 11.352C64.6355 10.04 65.0995 8.992 66.0275 8.208C66.9555 7.392 68.0915 6.984 69.4355 6.984C70.7955 6.984 71.9395 7.392 72.8675 8.208C73.7955 8.992 74.2595 10.04 74.2595 11.352C74.2595 12.216 73.9955 13.016 73.4675 13.752C72.9395 14.472 72.2355 14.992 71.3555 15.312V15.384C72.3795 15.512 73.2115 15.968 73.8515 16.752C74.5075 17.536 74.8355 18.472 74.8355 19.56C74.8355 20.984 74.3075 22.12 73.2515 22.968C72.2275 23.8 70.9635 24.216 69.4595 24.216C67.9555 24.216 66.6835 23.8 65.6435 22.968C64.5875 22.12 64.0595 21.016 64.0595 19.656ZM77.3512 28.944L76.5352 28.248C77.9752 26.984 79.0712 25.52 79.8232 23.856C80.5752 22.176 80.9512 20.424 80.9512 18.6C80.9512 16.728 80.5992 15.008 79.8952 13.44C79.1912 11.872 78.0712 10.376 76.5352 8.952L77.3272 8.256C80.5752 11.184 82.1992 14.632 82.1992 18.6C82.1992 22.712 80.5832 26.16 77.3512 28.944ZM95.5364 14.736H96.2804C97.0644 14.736 97.7844 14.424 98.4404 13.8C99.0804 13.16 99.4004 12.392 99.4004 11.496C99.4004 10.52 99.0484 9.728 98.3444 9.12C97.6564 8.528 96.8324 8.232 95.8724 8.232C94.8964 8.232 94.0804 8.528 93.4244 9.12C92.7524 9.728 92.4164 10.52 92.4164 11.496C92.4164 12.392 92.7364 13.16 93.3764 13.8C94.0164 14.424 94.7364 14.736 95.5364 14.736ZM96.2564 15.984H95.6324C94.5764 15.984 93.6804 16.32 92.9444 16.992C92.2084 17.632 91.8404 18.448 91.8404 19.44C91.8404 20.464 92.2324 21.312 93.0164 21.984C93.8164 22.64 94.7764 22.968 95.8964 22.968C97.0804 22.968 98.0484 22.648 98.8004 22.008C99.5844 21.368 99.9764 20.512 99.9764 19.44C99.9764 18.4 99.6244 17.568 98.9204 16.944C98.2164 16.304 97.3284 15.984 96.2564 15.984ZM90.5204 19.656C90.5204 18.632 90.8324 17.728 91.4564 16.944C92.0804 16.16 92.9044 15.648 93.9284 15.408V15.336C93.1444 15.096 92.4724 14.6 91.9124 13.848C91.3684 13.096 91.0964 12.264 91.0964 11.352C91.0964 10.04 91.5604 8.992 92.4884 8.208C93.4164 7.392 94.5524 6.984 95.8964 6.984C97.2564 6.984 98.4004 7.392 99.3284 8.208C100.256 8.992 100.72 10.04 100.72 11.352C100.72 12.216 100.456 13.016 99.9284 13.752C99.4004 14.472 98.6964 14.992 97.8164 15.312V15.384C98.8404 15.512 99.6724 15.968 100.312 16.752C100.968 17.536 101.296 18.472 101.296 19.56C101.296 20.984 100.768 22.12 99.7124 22.968C98.6884 23.8 97.4244 24.216 95.9204 24.216C94.4164 24.216 93.1444 23.8 92.1044 22.968C91.0484 22.12 90.5204 21.016 90.5204 19.656ZM109.716 14.736H110.46C111.244 14.736 111.964 14.424 112.62 13.8C113.26 13.16 113.58 12.392 113.58 11.496C113.58 10.52 113.228 9.728 112.524 9.12C111.836 8.528 111.012 8.232 110.052 8.232C109.076 8.232 108.26 8.528 107.604 9.12C106.932 9.728 106.596 10.52 106.596 11.496C106.596 12.392 106.916 13.16 107.556 13.8C108.196 14.424 108.916 14.736 109.716 14.736ZM110.436 15.984H109.812C108.756 15.984 107.86 16.32 107.124 16.992C106.388 17.632 106.02 18.448 106.02 19.44C106.02 20.464 106.412 21.312 107.196 21.984C107.996 22.64 108.956 22.968 110.076 22.968C111.26 22.968 112.228 22.648 112.98 22.008C113.764 21.368 114.156 20.512 114.156 19.44C114.156 18.4 113.804 17.568 113.1 16.944C112.396 16.304 111.508 15.984 110.436 15.984ZM104.7 19.656C104.7 18.632 105.012 17.728 105.636 16.944C106.26 16.16 107.084 15.648 108.108 15.408V15.336C107.324 15.096 106.652 14.6 106.092 13.848C105.548 13.096 105.276 12.264 105.276 11.352C105.276 10.04 105.74 8.992 106.668 8.208C107.596 7.392 108.732 6.984 110.076 6.984C111.436 6.984 112.58 7.392 113.508 8.208C114.436 8.992 114.9 10.04 114.9 11.352C114.9 12.216 114.636 13.016 114.108 13.752C113.58 14.472 112.876 14.992 111.996 15.312V15.384C113.02 15.512 113.852 15.968 114.492 16.752C115.148 17.536 115.476 18.472 115.476 19.56C115.476 20.984 114.948 22.12 113.892 22.968C112.868 23.8 111.604 24.216 110.1 24.216C108.596 24.216 107.324 23.8 106.284 22.968C105.228 22.12 104.7 21.016 104.7 19.656ZM123.896 14.736H124.64C125.424 14.736 126.144 14.424 126.8 13.8C127.44 13.16 127.76 12.392 127.76 11.496C127.76 10.52 127.408 9.728 126.704 9.12C126.016 8.528 125.192 8.232 124.232 8.232C123.256 8.232 122.44 8.528 121.784 9.12C121.112 9.728 120.776 10.52 120.776 11.496C120.776 12.392 121.096 13.16 121.736 13.8C122.376 14.424 123.096 14.736 123.896 14.736ZM124.616 15.984H123.992C122.936 15.984 122.04 16.32 121.304 16.992C120.568 17.632 120.2 18.448 120.2 19.44C120.2 20.464 120.592 21.312 121.376 21.984C122.176 22.64 123.136 22.968 124.256 22.968C125.44 22.968 126.408 22.648 127.16 22.008C127.944 21.368 128.336 20.512 128.336 19.44C128.336 18.4 127.984 17.568 127.28 16.944C126.576 16.304 125.688 15.984 124.616 15.984ZM118.88 19.656C118.88 18.632 119.192 17.728 119.816 16.944C120.44 16.16 121.264 15.648 122.288 15.408V15.336C121.504 15.096 120.832 14.6 120.272 13.848C119.728 13.096 119.456 12.264 119.456 11.352C119.456 10.04 119.92 8.992 120.848 8.208C121.776 7.392 122.912 6.984 124.256 6.984C125.616 6.984 126.76 7.392 127.688 8.208C128.616 8.992 129.08 10.04 129.08 11.352C129.08 12.216 128.816 13.016 128.288 13.752C127.76 14.472 127.056 14.992 126.176 15.312V15.384C127.2 15.512 128.032 15.968 128.672 16.752C129.328 17.536 129.656 18.472 129.656 19.56C129.656 20.984 129.128 22.12 128.072 22.968C127.048 23.8 125.784 24.216 124.28 24.216C122.776 24.216 121.504 23.8 120.464 22.968C119.408 22.12 118.88 21.016 118.88 19.656ZM138.891 18.072H133.395V16.896H138.891V18.072ZM142.693 11.112L142.021 10.104L145.837 7.056H146.701V24H145.453V8.88L142.693 11.112ZM157.407 18.072H151.911V16.896H157.407V18.072ZM160.753 18.048C160.753 16.608 160.993 15.224 161.473 13.896C161.953 12.568 162.593 11.432 163.393 10.488C165.089 8.568 166.905 7.4 168.841 6.984L169.369 7.92C167.641 8.32 166.089 9.272 164.713 10.776C163.353 12.264 162.513 14.152 162.193 16.44C162.577 15.608 163.145 14.944 163.897 14.448C164.649 13.952 165.537 13.704 166.561 13.704C168.001 13.704 169.169 14.184 170.065 15.144C170.977 16.104 171.433 17.352 171.433 18.888C171.433 20.408 170.929 21.68 169.921 22.704C168.929 23.712 167.769 24.216 166.441 24.216C164.649 24.216 163.249 23.624 162.241 22.44C161.249 21.256 160.753 19.792 160.753 18.048ZM162.073 18.048C162.073 19.408 162.449 20.576 163.201 21.552C163.953 22.496 165.025 22.968 166.417 22.968C167.441 22.968 168.313 22.576 169.033 21.792C169.753 20.992 170.113 20.056 170.113 18.984C170.113 17.768 169.761 16.784 169.057 16.032C168.353 15.264 167.393 14.88 166.177 14.88C165.121 14.88 164.225 15.208 163.489 15.864C162.753 16.52 162.281 17.248 162.073 18.048ZM175.364 15.264L176.396 7.2H183.692V8.448H177.476L176.756 13.92C177.252 13.776 177.804 13.704 178.412 13.704C179.98 13.704 181.252 14.168 182.228 15.096C183.22 16.04 183.716 17.272 183.716 18.792C183.716 20.44 183.212 21.752 182.204 22.728C181.18 23.72 179.948 24.216 178.508 24.216C177.516 24.216 176.588 23.984 175.724 23.52C174.876 23.056 174.212 22.4 173.732 21.552L174.476 20.664C174.892 21.384 175.468 21.952 176.204 22.368C176.956 22.768 177.732 22.968 178.532 22.968C179.636 22.968 180.556 22.584 181.292 21.816C182.028 21.032 182.396 20.04 182.396 18.84C182.396 17.672 181.98 16.72 181.148 15.984C180.332 15.216 179.252 14.832 177.908 14.832C176.964 14.832 176.116 14.976 175.364 15.264ZM194.698 24H193.45V19.56H185.65V18.72L192.994 7.2H194.434L187.33 18.312H193.45V13.2H194.698V18.312H197.17V19.56H194.698V24Z" fill="white"/>
</svg>
