<svg width="75" height="24" viewBox="0 0 75 24" fill="none" xmlns="http://www.w3.org/2000/svg">
<path d="M34.04 17H32.68V5.8H34.056L38.264 11.544L42.296 5.8H43.592V17H42.232V7.944L38.264 13.512H38.056L34.04 7.992V17ZM52.0976 15.208L52.4976 16.216C51.8043 16.8453 50.903 17.16 49.7936 17.16C48.6203 17.16 47.687 16.8187 46.9936 16.136C46.2896 15.4533 45.9376 14.5413 45.9376 13.4C45.9376 12.3227 46.2683 11.4267 46.9296 10.712C47.5803 9.99733 48.487 9.64 49.6496 9.64C50.6096 9.64 51.4043 9.94933 52.0336 10.568C52.6736 11.176 52.9936 11.9653 52.9936 12.936C52.9936 13.2453 52.967 13.5333 52.9136 13.8H47.3776C47.431 14.472 47.6816 15 48.1296 15.384C48.5883 15.768 49.175 15.96 49.8896 15.96C50.8283 15.96 51.5643 15.7093 52.0976 15.208ZM49.5856 10.84C48.9563 10.84 48.4336 11.016 48.0176 11.368C47.6123 11.72 47.3723 12.184 47.2976 12.76H51.6656C51.6336 12.1627 51.431 11.6933 51.0576 11.352C50.695 11.0107 50.2043 10.84 49.5856 10.84ZM61.2901 17H60.0101V13.96H56.0101V17H54.7301V9.8H56.0101V12.76H60.0101V9.8H61.2901V17ZM64.9651 17H63.6051V9.8H64.9651V12.68H66.5331C66.6825 11.7627 67.0825 11.0267 67.7331 10.472C68.3945 9.91733 69.2051 9.64 70.1651 9.64C71.2958 9.64 72.2025 9.99733 72.8851 10.712C73.5785 11.4267 73.9251 12.3227 73.9251 13.4C73.9251 14.4773 73.5731 15.3787 72.8691 16.104C72.1758 16.808 71.2745 17.16 70.1651 17.16C69.1518 17.16 68.3198 16.8667 67.6691 16.28C67.0185 15.6933 66.6345 14.92 66.5171 13.96H64.9651V17ZM68.5651 11.608C68.1385 12.0667 67.9251 12.664 67.9251 13.4C67.9251 14.136 68.1385 14.7333 68.5651 15.192C68.9918 15.6507 69.5411 15.88 70.2131 15.88C70.8851 15.88 71.4291 15.656 71.8451 15.208C72.2718 14.7493 72.4851 14.1467 72.4851 13.4C72.4851 12.664 72.2771 12.0667 71.8611 11.608C71.4451 11.1493 70.8958 10.92 70.2131 10.92C69.5411 10.92 68.9918 11.1493 68.5651 11.608Z" fill="white"/>
<path d="M19.375 6.24997H0.624985C0.27997 6.24997 0 5.96995 0 5.62499C0 5.27997 0.280024 5 0.624985 5H19.375C19.72 5 20 5.28002 20 5.62499C20 5.96995 19.72 6.24997 19.375 6.24997Z" fill="white"/>
<path d="M0.624985 9.375H19.375C19.72 9.375 20 9.65502 20 9.99999C20 10.3449 19.72 10.625 19.375 10.625H0.624985C0.27997 10.625 0 10.3449 0 9.99999C0 9.65502 0.27997 9.375 0.624985 9.375Z" fill="white"/>
<path d="M0.625006 13.75H13.125C13.47 13.75 13.75 14.03 13.75 14.375C13.75 14.72 13.47 15 13.125 15H0.625006C0.279991 15 2.09808e-05 14.7199 2.09808e-05 14.375C-3.05176e-05 14.03 0.279991 13.75 0.625006 13.75Z" fill="white"/>
</svg>
