<svg width="89" height="21" viewBox="0 0 89 21" fill="none" xmlns="http://www.w3.org/2000/svg">
<path d="M18.146 11.5885C18.7427 6.56601 17.8593 3.39517 16.266 1.96101L16.2668 1.96017C13.6952 -0.488993 5.01016 -0.851493 1.9335 2.07017C0.551831 3.49934 0.0651638 5.59684 0.0118305 8.19351C-0.0415028 10.791 -0.104836 15.6568 4.42933 16.9768H4.4335L4.42933 18.9927C4.42933 18.9927 4.3985 19.8093 4.92016 19.9735C5.51683 20.1668 5.78683 19.7877 7.64266 17.571C10.746 17.8402 13.1293 17.2235 13.4002 17.1335C14.0268 16.9235 17.5727 16.4543 18.146 11.5885ZM7.9485 16.1527C7.9485 16.1527 5.98433 18.6018 5.3735 19.2377C5.1735 19.4443 4.95433 19.4252 4.95766 19.0152C4.95766 18.746 4.97266 15.6685 4.97266 15.6685C1.1285 14.5668 1.35516 10.4235 1.39683 8.25601C1.4385 6.08768 1.83516 4.31184 3.00516 3.11601C5.70433 0.585174 13.3185 1.15101 15.2585 2.97434C17.6302 5.07684 16.786 11.0168 16.791 11.2193C16.3035 15.281 13.4302 15.5385 12.9018 15.7143C12.676 15.7893 10.5802 16.3285 7.9485 16.1527Z" fill="white"/>
<path d="M9.03506 3.59186C8.71423 3.59186 8.71423 4.09186 9.03506 4.09602C11.5242 4.11519 13.5742 5.85019 13.5967 9.0327C13.5967 9.36853 14.0884 9.36436 14.0842 9.02853H14.0834C14.0567 5.59936 11.8184 3.61102 9.03506 3.59186Z" fill="white"/>
<path d="M12.3093 8.50518C12.3018 8.83685 12.7926 8.85268 12.7968 8.51685C12.8376 6.62601 11.6718 5.06852 9.48096 4.90435C9.16013 4.88102 9.12679 5.38518 9.44679 5.40852C11.3468 5.55268 12.3476 6.84935 12.3093 8.50518Z" fill="white"/>
<path d="M11.7844 10.656C11.3727 10.4177 10.9535 10.566 10.7802 10.8002L10.4177 11.2694C10.2335 11.5077 9.88936 11.476 9.88936 11.476C7.37769 10.8119 6.70603 8.18352 6.70603 8.18352C6.70603 8.18352 6.67519 7.82769 6.90519 7.63686L7.35853 7.26186C7.58519 7.08186 7.72853 6.64852 7.49769 6.22269C6.88103 5.10852 6.46686 4.72436 6.25603 4.42936C6.03436 4.15186 5.70103 4.08936 5.35436 4.27686H5.34686C4.62603 4.69852 3.83686 5.48769 4.08936 6.30019C4.52019 7.15686 5.31186 9.88769 7.83519 11.951C9.02103 12.9269 10.8977 13.9269 11.6944 14.1577L11.7019 14.1694C12.4869 14.431 13.2502 13.611 13.6577 12.8685V12.8627C13.8385 12.5035 13.7785 12.1635 13.5144 11.941C13.046 11.4844 12.3394 10.9802 11.7844 10.656Z" fill="white"/>
<path d="M9.82422 6.76434C10.6251 6.81101 11.0134 7.22934 11.0551 8.08851C11.0701 8.42434 11.5576 8.40101 11.5426 8.06518C11.4892 6.94351 10.9042 6.31851 9.85089 6.26018C9.53006 6.24101 9.50006 6.74518 9.82422 6.76434Z" fill="white"/>
<path d="M48.4394 11.9335L48.4319 11.996C46.5994 11.0827 46.4077 10.961 46.1711 11.316C46.0069 11.5618 45.5286 12.1193 45.3844 12.2843C45.2386 12.4468 45.0936 12.4593 44.8461 12.3468C44.596 12.2218 43.7935 11.9593 42.8435 11.1093C42.1035 10.4468 41.6069 9.63432 41.4602 9.38432C41.216 8.96265 41.7269 8.90265 42.1919 8.02265C42.2752 7.84765 42.2327 7.71015 42.171 7.58599C42.1085 7.46099 41.611 6.23599 41.4027 5.74765C41.2027 5.26098 40.9969 5.32265 40.8427 5.32265C40.3627 5.28099 40.0119 5.28765 39.7027 5.60932C38.3577 7.08765 38.6969 8.61265 39.8477 10.2343C42.1094 13.1943 43.3144 13.7393 45.5177 14.496C46.1127 14.6852 46.6552 14.6585 47.0844 14.5968C47.5627 14.521 48.5569 13.996 48.7644 13.4085C48.9769 12.821 48.9769 12.3335 48.9144 12.221C48.8527 12.1085 48.6894 12.046 48.4394 11.9335Z" fill="white"/>
<path d="M50.9501 2.88453C44.5426 -3.30963 33.9384 1.18287 33.9343 9.9212C33.9343 11.6679 34.3918 13.3712 35.2634 14.8754L33.8501 20.0104L39.1293 18.6337C45.7168 22.192 53.8468 17.467 53.8501 9.9262C53.8501 7.27953 52.8168 4.7887 50.9376 2.91703L50.9501 2.88453ZM52.1851 9.89869C52.1801 16.2595 45.1976 20.232 39.6751 16.9854L39.3751 16.807L36.2501 17.6195L37.0876 14.582L36.8884 14.2695C33.4518 8.7987 37.4001 1.6487 43.9101 1.6487C46.1218 1.6487 48.1976 2.5112 49.7609 4.0737C51.3234 5.62287 52.1851 7.6987 52.1851 9.89869Z" fill="white"/>
<path d="M88.5413 1.99768C88.297 1.69891 87.9311 1.53442 87.5109 1.53442C87.2825 1.53442 87.0404 1.58249 86.7917 1.67755L69.8621 8.1401C68.9637 8.48297 68.8427 8.99749 68.8504 9.27368C68.8582 9.54986 69.0082 10.0568 69.9247 10.3484C69.9301 10.35 69.9356 10.3517 69.9411 10.3532L73.4528 11.3582L75.3519 16.7888C75.6108 17.5291 76.1921 17.989 76.8689 17.989C77.2957 17.989 77.7155 17.8102 78.0829 17.4721L80.255 15.4721L83.4055 18.0089C83.4058 18.0092 83.4063 18.0093 83.4066 18.0096L83.4365 18.0337C83.4392 18.0359 83.4421 18.0382 83.4449 18.0403C83.7951 18.3119 84.1773 18.4553 84.5507 18.4555H84.5508C85.2803 18.4555 85.8612 17.9155 86.0305 17.0799L88.8044 3.38303C88.9158 2.83325 88.8224 2.34131 88.5413 1.99768ZM74.6276 11.1673L81.4026 7.70614L77.184 12.1887C77.1149 12.2621 77.0659 12.352 77.0418 12.4498L76.2284 15.7448L74.6276 11.1673ZM77.289 16.6099C77.2609 16.6357 77.2327 16.6588 77.2045 16.68L77.9592 13.6233L79.332 14.7288L77.289 16.6099ZM87.6558 3.15033L84.8819 16.8474C84.8552 16.9784 84.7699 17.2835 84.5507 17.2835C84.4423 17.2835 84.3062 17.2244 84.1669 17.1171L80.597 14.2427C80.5965 14.2422 80.5959 14.2418 80.5953 14.2415L78.4711 12.531L84.5717 6.04858C84.767 5.84106 84.7847 5.52322 84.6137 5.29526C84.4425 5.06729 84.1323 4.99557 83.8785 5.12527L73.8446 10.2513L70.2852 9.23294L87.2097 2.77237C87.3526 2.71774 87.4524 2.7063 87.5109 2.7063C87.5467 2.7063 87.6105 2.71057 87.6342 2.73971C87.6653 2.77771 87.705 2.90726 87.6558 3.15033Z" fill="white"/>
</svg>
